<svg width="233" height="96" viewBox="0 0 233 96" fill="none" xmlns="http://www.w3.org/2000/svg">
<path d="M99.4201 45.9747C72.8883 45.9747 67.7669 0.821045 34.6021 0.821045H0.83429V23.7349H29.5799C53.898 23.7349 51.486 95.4915 91.8868 95.4915H232.072V45.9747H99.4201Z" fill="#231868"/>
<path d="M99.4201 58.9747C72.8883 58.9747 67.7669 8.82104 34.6021 8.82104H0.83429V23.7349H29.5799C53.898 23.7349 51.486 95.4915 91.8868 95.4915H200.501V58.9747H99.4201Z" fill="#C7EEF0"/>
<path d="M99.4201 75.9747C72.8883 75.9747 67.7669 17.821 34.6021 17.821H0.83429V23.7349H29.5799C53.898 23.7349 51.486 95.4915 91.8868 95.4915H174.804V75.9747H99.4201Z" fill="#E64444"/>
</svg>
