<svg xmlns="http://www.w3.org/2000/svg" viewBox="0 0 531.34 121.18"><title>Asset 1</title><path d="M374.68,57.39q-1.43-5-8.46-5a15.09,15.09,0,0,0-13.4,7.33,29.07,29.07,0,0,0-3.76,9.89l-5,23.68,23.32,5.15,7-33.18C375.14,61.84,375.23,59.22,374.68,57.39Z"/><path d="M158.32,53.43c-1.63-1-4.23-1.51-7.8-1.52-4,0-7.07,1-9.18,3-.11.11-.21.25-.32.37q9.45,1.11,19.08,2.44Q160.36,54.71,158.32,53.43Z"/><path d="M266.44,57.33c-.87-3-3.34-4.52-7.39-4.52a12.51,12.51,0,0,0-11,5.83,22.28,22.28,0,0,0-3,7.45L243.81,72q9.91,2,19.79,4l2.66-12.55A13.15,13.15,0,0,0,266.44,57.33Z"/><path d="M75.69,28.73,71.08,50.59c16.82,0,34.68,1.08,53.21,2.87a29.53,29.53,0,0,1,4.81-6.61q8.58-8.58,25-8.58,10.67,0,18.05,4.23t4.89,16l-.35,1.63Q183.8,61.22,191,62.4L195.74,40h16.5l-2,9.47a37.42,37.42,0,0,1,7.5-7.21,23.91,23.91,0,0,1,13.58-3.81q7.45,0,11.38,3.28a14.35,14.35,0,0,1,3.93,7.8,29.2,29.2,0,0,1,10.07-8.4,28.74,28.74,0,0,1,12.21-2.68A20,20,0,0,1,277,40.09a14.19,14.19,0,0,1,6.37,5.84,16.06,16.06,0,0,1,1.91,8.34,63.41,63.41,0,0,1-1.43,9.59L280.5,79.48q7.62,1.6,15.19,3.23l9.08-42.86H322l-9.91,46.4,15.83,3.47,10.57-49.78h16.38l-2,9.47a39.76,39.76,0,0,1,7.74-7.2,25.29,25.29,0,0,1,14.12-3.94q10.06,0,15.34,5.28T392.73,61L384,102.08c81.51,17.67,142.71,28.42,147.08,8C540.08,38.33,311.82-45.06,75.69,28.73Zm247.88,3.35H306.35l3.34-15.67H326.9ZM461.71,58.47l-6.37,29.78c-.44,2.07-.92,4.58-1.43,7.51q-.54,3.33,0,4.53a4.46,4.46,0,0,0,2,2l-.47,2.5H437.08a17.57,17.57,0,0,1-.3-3.69q.06-1.72.36-3.93a48.61,48.61,0,0,1-9.47,6.49,28.46,28.46,0,0,1-13.11,3.16q-8.82,0-13.49-5t-2.71-14.26q2.56-12,12.93-17.34,5.65-2.91,15.78-4.17l5.9-.71a31.3,31.3,0,0,0,7.09-1.49Q444,62.31,444.7,59c.56-2.66,0-4.49-1.6-5.51S438.87,52,435.29,52q-6,0-9.17,3a16.89,16.89,0,0,0-3.64,6h-16.4a31.87,31.87,0,0,1,7.75-14q8.57-8.58,25-8.58,10.65,0,18.05,4.23T461.71,58.47Zm23,46.28h-18L470.41,87h18Z"/><path d="M228.61,57.69Q227.49,53,221.23,53q-7.28,0-10.79,4.7a21.36,21.36,0,0,0-2.93,7.51q9.94,1.74,19.93,3.63l.58-2.74C228.85,62.24,229,59.44,228.61,57.69Z"/><path d="M433.24,76l-3.93.72A29.46,29.46,0,0,0,421.08,79a10.12,10.12,0,0,0-5.42,7.21c-.63,2.9-.29,5,1,6.28a7.51,7.51,0,0,0,5.46,1.94,20.6,20.6,0,0,0,10.78-3.22q5.3-3.21,7.32-11.74l1.32-6.31A22.27,22.27,0,0,1,438,74.83,32,32,0,0,1,433.24,76Z"/><path d="M.08,58.7C-1.82,63.85,30.3,52,52.62,51L56,35.25C35.08,42.55,6.58,53.46.08,58.7Z"/><path d="M78.2,17H59.85L56,35.26q9.87-3.46,19.73-6.53Z"/><path d="M41.2,104.75h61.88L106.41,89H62.89l8.19-38.38q-9.45,0-18.43.38Z"/><path d="M159.93,58.94q-.72,3.29-4.65,4.83a31.3,31.3,0,0,1-7.09,1.49L142.3,66q-10.14,1.26-15.79,4.17-10.37,5.37-12.93,17.34-2,9.22,2.71,14.27t13.5,5a28.42,28.42,0,0,0,13.1-3.16,48,48,0,0,0,9.47-6.49c-.2,1.47-.31,2.78-.35,3.93a17.57,17.57,0,0,0,.3,3.69h18.46l.48-2.5a4.44,4.44,0,0,1-2.06-2q-.56-1.2,0-4.53.78-4.41,1.43-7.51l6-28.15q-8.31-1.26-16.51-2.4C160.07,58.07,160,58.51,159.93,58.94Zm-4.41,20.55q-2,8.52-7.33,11.74a20.6,20.6,0,0,1-10.78,3.22A7.49,7.49,0,0,1,132,92.51c-1.33-1.29-1.68-3.39-1-6.28A10.08,10.08,0,0,1,136.38,79a29.39,29.39,0,0,1,8.22-2.33l3.93-.71a33.84,33.84,0,0,0,4.77-1.16,22.17,22.17,0,0,0,3.57-1.64Z"/><path d="M121.33,60.85h16.38A17.1,17.1,0,0,1,141,55.26q-8.46-1-16.76-1.8A37.06,37.06,0,0,0,121.33,60.85Z"/><path d="M257.56,104.75H275l5.45-25.31q-8.34-1.75-16.75-3.48Z"/><path d="M181.91,104.75h17.22l8.28-39.08a2.63,2.63,0,0,1,.1-.47q-8.32-1.47-16.6-2.83Z"/><path d="M219.86,104.75H237L243.87,72q-8.22-1.62-16.43-3.16Z"/><path d="M290.92,104.75h17.22l3.92-18.5L295.6,82.68Z"/><path d="M366.08,104.75h17.4l.56-2.67-16.63-3.64Z"/><path d="M324.7,104.75h16.92l2.46-11.46-16.16-3.57Z"/></svg>